<svg xmlns="http://www.w3.org/2000/svg" xmlns:xlink="http://www.w3.org/1999/xlink" width="100" height="100" viewBox="0 0 100 100"><rect width="100%" height="100%" fill="#0073E6" rx="5" ry="5"></rect><g transform="translate(50 50) scale(0.69 0.69) rotate(0) translate(-50 -50)" style="fill:#FFF200"><svg fill="#FFF200" xmlns="http://www.w3.org/2000/svg" xmlns:xlink="http://www.w3.org/1999/xlink" version="1.1" x="0px" y="0px" viewBox="0 0 100 100" style="enable-background:new 0 0 100 100;" xml:space="preserve"><path d="M49.89,60.131c5.586,0,10.131-4.545,10.131-10.131S55.476,39.869,49.89,39.869S39.759,44.414,39.759,50  S44.304,60.131,49.89,60.131z M49.89,41.869c4.483,0,8.131,3.647,8.131,8.131s-3.647,8.131-8.131,8.131S41.759,54.483,41.759,50  S45.406,41.869,49.89,41.869z"></path><path d="M31.988,37.565c-0.28,0.045-0.527,0.206-0.682,0.444c-1.457,2.254-2.479,4.72-3.039,7.328  c-0.06,0.277,0.001,0.567,0.168,0.797c0.166,0.229,0.423,0.378,0.705,0.408c1.771,0.187,3.108,1.673,3.108,3.458  s-1.337,3.271-3.108,3.458c-0.282,0.03-0.539,0.178-0.705,0.408c-0.167,0.23-0.228,0.52-0.168,0.797  c0.56,2.608,1.582,5.074,3.039,7.328c0.154,0.238,0.401,0.399,0.682,0.444c0.281,0.048,0.565-0.031,0.787-0.209  c1.385-1.12,3.378-1.012,4.641,0.249c1.261,1.261,1.368,3.256,0.249,4.641c-0.179,0.22-0.255,0.506-0.21,0.786  c0.045,0.28,0.206,0.528,0.444,0.682c2.252,1.457,4.718,2.479,7.328,3.04c0.274,0.06,0.567,0,0.797-0.168  c0.229-0.167,0.378-0.422,0.407-0.705c0.188-1.772,1.674-3.109,3.458-3.109c1.785,0,3.271,1.337,3.459,3.109  c0.029,0.282,0.178,0.538,0.407,0.705c0.172,0.125,0.378,0.19,0.587,0.19c0.07,0,0.141-0.007,0.21-0.022  c2.608-0.56,5.074-1.583,7.328-3.04c0.238-0.154,0.399-0.402,0.444-0.682c0.045-0.28-0.031-0.566-0.21-0.787  c-1.119-1.384-1.013-3.379,0.248-4.641c1.263-1.261,3.257-1.368,4.641-0.249c0.222,0.178,0.508,0.258,0.787,0.209  c0.279-0.044,0.527-0.206,0.682-0.444c1.456-2.251,2.479-4.716,3.04-7.328c0.06-0.277-0.001-0.567-0.168-0.797  c-0.166-0.229-0.423-0.378-0.705-0.408C68.867,53.271,67.53,51.785,67.53,50s1.337-3.271,3.109-3.458  c0.282-0.03,0.539-0.178,0.705-0.408c0.167-0.23,0.228-0.52,0.168-0.797c-0.562-2.611-1.584-5.077-3.04-7.328  c-0.154-0.238-0.402-0.4-0.682-0.444c-0.279-0.045-0.565,0.032-0.787,0.209c-1.385,1.119-3.379,1.012-4.641-0.249  c-1.261-1.261-1.367-3.256-0.248-4.641c0.179-0.221,0.255-0.507,0.21-0.787c-0.045-0.28-0.206-0.528-0.444-0.682  c-2.254-1.457-4.72-2.479-7.328-3.04c-0.275-0.06-0.567,0-0.797,0.168c-0.229,0.167-0.378,0.422-0.407,0.705  c-0.188,1.772-1.674,3.109-3.459,3.109c-1.784,0-3.271-1.337-3.458-3.109c-0.029-0.282-0.178-0.538-0.407-0.705  c-0.229-0.167-0.521-0.227-0.797-0.168c-2.61,0.561-5.076,1.583-7.328,3.04c-0.238,0.154-0.399,0.402-0.444,0.682  c-0.045,0.28,0.031,0.566,0.21,0.786c1.119,1.385,1.012,3.38-0.249,4.641c-1.262,1.261-3.256,1.368-4.641,0.249  C32.554,37.597,32.27,37.521,31.988,37.565z M38.83,38.94c1.714-1.714,2.073-4.289,1.007-6.365c1.523-0.882,3.145-1.555,4.839-2.008  c0.713,2.225,2.789,3.792,5.214,3.792c2.426,0,4.502-1.568,5.215-3.792c1.693,0.453,3.314,1.126,4.838,2.008  c-1.066,2.076-0.707,4.651,1.007,6.365c1.715,1.714,4.29,2.075,6.365,1.007c0.883,1.523,1.555,3.144,2.009,4.838  C67.099,45.499,65.53,47.575,65.53,50s1.568,4.501,3.793,5.214c-0.454,1.695-1.126,3.315-2.009,4.838  c-2.075-1.066-4.65-0.708-6.365,1.007c-1.714,1.714-2.073,4.29-1.007,6.365c-1.523,0.882-3.145,1.555-4.838,2.008  c-0.713-2.225-2.789-3.792-5.215-3.792c-2.425,0-4.501,1.568-5.214,3.792c-1.694-0.453-3.315-1.126-4.839-2.008  c1.066-2.076,0.707-4.652-1.007-6.365s-4.29-2.072-6.365-1.007c-0.883-1.524-1.555-3.145-2.008-4.838  c2.224-0.713,3.792-2.789,3.792-5.214s-1.568-4.501-3.792-5.214c0.453-1.693,1.125-3.314,2.008-4.838  C34.542,41.015,37.116,40.654,38.83,38.94z"></path><path d="M48.89,22.587v4.579c0,0.552,0.447,1,1,1s1-0.448,1-1v-4.579c3.036-0.48,5.367-3.096,5.367-6.251  C56.257,12.842,53.4,10,49.89,10s-6.366,2.842-6.366,6.336C43.523,19.491,45.854,22.107,48.89,22.587z M49.89,12  c2.408,0,4.367,1.945,4.367,4.336c0,2.392-1.959,4.337-4.367,4.337c-2.407,0-4.366-1.945-4.366-4.337  C45.523,13.945,47.482,12,49.89,12z"></path><path d="M26.056,32.548c0.006,0,0.013,0,0.019,0c1.358-0.004,2.647-0.437,3.726-1.224l3.237,3.238  c0.195,0.195,0.451,0.293,0.707,0.293s0.512-0.098,0.707-0.293c0.391-0.39,0.391-1.023,0-1.414l-3.237-3.238  c0.787-1.078,1.22-2.368,1.224-3.726c0.005-1.697-0.652-3.292-1.85-4.489c-1.193-1.193-2.78-1.85-4.472-1.85  c-0.006,0-0.012,0-0.018,0c-1.696,0.005-3.291,0.669-4.493,1.871s-1.866,2.797-1.871,4.493c-0.005,1.698,0.652,3.292,1.851,4.49  C22.778,31.892,24.365,32.548,26.056,32.548z M23.02,23.13c0.825-0.825,1.921-1.282,3.084-1.285c0.005,0,0.009,0,0.013,0  c1.157,0,2.242,0.449,3.058,1.264c0.818,0.818,1.268,1.909,1.264,3.07c-0.003,1.163-0.459,2.258-1.285,3.084  c-0.825,0.826-1.921,1.282-3.084,1.285c-0.004,0-0.008,0-0.013,0c-1.156,0-2.241-0.448-3.057-1.264  c-0.818-0.818-1.268-1.909-1.265-3.07C21.737,25.051,22.194,23.956,23.02,23.13z"></path><path d="M16.227,56.367c3.155,0,5.771-2.331,6.251-5.367h4.579c0.553,0,1-0.448,1-1s-0.447-1-1-1h-4.579  c-0.48-3.036-3.096-5.367-6.251-5.367c-3.494,0-6.337,2.856-6.337,6.367S12.732,56.367,16.227,56.367z M16.227,45.633  c2.392,0,4.337,1.959,4.337,4.367s-1.945,4.367-4.337,4.367S11.89,52.408,11.89,50S13.835,45.633,16.227,45.633z"></path><path d="M34.451,65.438c-0.391-0.391-1.023-0.391-1.414,0L29.8,68.676c-1.079-0.787-2.368-1.221-3.726-1.224  c-0.006,0-0.013,0-0.019,0c-1.69,0-3.277,0.656-4.471,1.85c-1.198,1.197-1.855,2.792-1.851,4.49  c0.005,1.695,0.669,3.291,1.871,4.493s2.797,1.866,4.493,1.871c0.006,0,0.012,0,0.018,0c1.691,0,3.278-0.657,4.472-1.85  c1.197-1.198,1.854-2.792,1.85-4.489c-0.003-1.358-0.436-2.647-1.224-3.726l3.237-3.238C34.842,66.462,34.842,65.829,34.451,65.438z   M29.174,76.891c-0.815,0.815-1.9,1.264-3.058,1.264c-0.004,0-0.008,0-0.013,0c-1.163-0.003-2.259-0.46-3.084-1.285  c-0.825-0.826-1.282-1.921-1.285-3.084c-0.003-1.161,0.446-2.251,1.265-3.07c0.815-0.815,1.9-1.264,3.057-1.264  c0.005,0,0.009,0,0.013,0c1.163,0.003,2.259,0.459,3.084,1.285c0.826,0.826,1.282,1.921,1.285,3.084  C30.441,74.982,29.992,76.073,29.174,76.891z"></path><path d="M49.89,71.833c-0.553,0-1,0.448-1,1v4.579c-3.036,0.48-5.366,3.096-5.366,6.251c0,3.494,2.855,6.336,6.366,6.336  s6.367-2.842,6.367-6.336c0-3.155-2.331-5.771-5.367-6.251v-4.579C50.89,72.281,50.442,71.833,49.89,71.833z M54.257,83.664  c0,2.391-1.959,4.336-4.367,4.336c-2.407,0-4.366-1.945-4.366-4.336c0-2.392,1.959-4.337,4.366-4.337  C52.298,79.327,54.257,81.272,54.257,83.664z"></path><path d="M69.191,78.305c1.193,1.193,2.78,1.85,4.472,1.85c0.006,0,0.012,0,0.018,0c1.696-0.005,3.291-0.669,4.493-1.871  s1.866-2.797,1.871-4.493c0.005-1.698-0.652-3.292-1.85-4.49c-1.193-1.193-2.78-1.85-4.472-1.85c-0.006,0-0.012,0-0.018,0  c-1.358,0.004-2.648,0.437-3.726,1.224l-3.238-3.237c-0.391-0.391-1.023-0.391-1.414,0s-0.391,1.024,0,1.414l3.238,3.237  c-0.787,1.079-1.22,2.369-1.224,3.726C67.337,75.513,67.994,77.108,69.191,78.305z M73.711,69.452c0.005,0,0.009,0,0.013,0  c1.157,0,2.242,0.448,3.058,1.264c1.69,1.691,1.681,4.452-0.021,6.154c-0.825,0.825-1.921,1.282-3.084,1.285  c-0.005,0-0.009,0-0.013,0c-1.157,0-2.242-0.449-3.058-1.264c-1.69-1.691-1.681-4.451,0.021-6.154  C71.452,69.912,72.548,69.455,73.711,69.452z"></path><path d="M77.303,49h-4.579c-0.553,0-1,0.448-1,1s0.447,1,1,1h4.579c0.48,3.036,3.096,5.367,6.251,5.367  c3.493,0,6.336-2.856,6.336-6.367s-2.843-6.367-6.336-6.367C80.399,43.633,77.783,45.964,77.303,49z M83.554,45.633  c2.391,0,4.336,1.959,4.336,4.367s-1.945,4.367-4.336,4.367c-2.392,0-4.337-1.959-4.337-4.367S81.162,45.633,83.554,45.633z"></path><path d="M66.035,34.854c0.256,0,0.512-0.098,0.707-0.293l3.238-3.237c1.078,0.787,2.368,1.22,3.726,1.224c0.006,0,0.012,0,0.018,0  c1.691,0,3.278-0.656,4.472-1.85c1.197-1.197,1.854-2.792,1.85-4.49c-0.005-1.695-0.669-3.291-1.871-4.493s-2.797-1.866-4.493-1.871  c-1.692,0.028-3.292,0.652-4.489,1.85c-1.197,1.197-1.854,2.792-1.85,4.489c0.004,1.358,0.437,2.647,1.224,3.726l-3.238,3.237  c-0.391,0.39-0.391,1.023,0,1.414C65.523,34.757,65.779,34.854,66.035,34.854z M70.605,23.109c0.815-0.815,1.9-1.264,3.058-1.264  c0.004,0,0.008,0,0.013,0c1.163,0.003,2.259,0.46,3.084,1.285c1.702,1.703,1.712,4.463,0.021,6.154  c-0.815,0.815-1.9,1.264-3.058,1.264c-0.004,0-0.008,0-0.013,0c-1.163-0.003-2.259-0.459-3.084-1.285  C68.925,27.56,68.915,24.8,70.605,23.109z"></path></svg></g></svg>